<?xml version="1.0" encoding="UTF-8"?>
<svg id="Layer_1" data-name="Layer 1" xmlns="http://www.w3.org/2000/svg" viewBox="0 0 2285.55 2500"><script xmlns=""/>
  <defs>
    <style>
      .cls-1 {
        stroke-width: 0px;
      }
    </style>
  </defs>
  <path class="cls-1" d="m1156.19,2119.07h-.5c-259.11-1.75-458.31-87.26-592.15-254.2-119.14-148.54-180.56-355.23-182.62-614.25v-1.25c2.06-259.08,63.48-465.71,182.62-614.25,133.84-166.94,333.04-252.45,592.15-254.2h1c198.63,1.31,364.81,52.45,493.96,151.86,121.39,93.46,206.82,226.66,253.98,395.98l-147.59,41.19c-79.87-286.75-282-433.35-600.84-435.67-210.52,1.5-369.68,67.73-473.19,196.8-96.94,120.87-147.04,295.45-148.85,518.85,1.88,223.47,51.97,398.04,148.85,518.85,103.51,129.07,262.67,195.3,473.19,196.8,189.75-1.38,315.34-45.64,419.78-148.04,119.2-116.87,117.01-260.21,78.86-347.4-22.45-51.39-63.23-94.21-118.2-126.63-13.82,97.78-44.91,177.15-92.94,236.92-64.04,79.81-154.85,123.44-269.8,129.64-86.99,4.7-170.8-15.9-235.85-58.02-76.93-49.83-121.96-126.07-126.77-214.7-4.69-86.19,29.46-165.44,96.13-223.15,63.73-55.15,153.35-87.51,259.23-93.45,78.06-4.38,151.04-.94,218.52,10.32-8.95-53.77-27.08-96.39-54.1-127.19-37.15-42.38-94.62-64.03-170.74-64.53h-2.13c-61.1,0-144.09,16.77-197.01,95.52l-127.15-85.57c70.8-105.35,185.81-163.31,324.09-163.31h3.13c231.22,1.44,368.87,142.97,382.57,390.16,7.88,3.32,15.57,6.76,23.2,10.33,107.88,50.76,186.75,127.63,228.15,222.27,57.66,131.95,62.98,346.97-112.08,518.48-133.71,131.08-296.07,190.23-526.41,191.8h-.5v.06Zm72.55-846.73c-17.51,0-35.27.5-53.41,1.56-132.9,7.51-215.7,68.41-211.02,155.17,4.94,90.89,105.13,133.14,201.39,127.95,88.62-4.76,203.95-39.25,223.27-268.72-48.91-10.45-102.69-15.96-160.24-15.96Z"/>
</svg>